Eric Clapton And Steve Winwood Live From Madison Square Garden Mkv 1080p Dts


Eric Clapton and Steve Winwood Live From Madison Square Garden (Blu-ray)

1. Had To Cry Today
2. Them Changes
3. Forever Man
4. Sleeping In The Ground
5. Presence Of The Lord
6. Glad
7. Well All Right
8. Double Trouble
9. Queen
10. Tell The Truth
11. No Face, No Name, No Number
12. After Midnight
13. Split Decision
14. Rambling On My Mind
15. Georgia On My Mind
16. Little Wing
17. Voodoo Chile
18. Can't Find My Way Home
19. Mr. Fantasy
20. Cocaine 


General 
Unique ID : 235465522666746932785793983380108902422 (0xB1250295BF668CE8906EF85B73188016) 
Eric Clapton And Steve Winwood Live From Madison Square Garden.mkv 
Format : Matroska 
Format version : Version 2 
File size : 5.65 GiB 
Duration : 2h 19mn 
Overall bit rate mode : Variable 
Overall bit rate : 5 801 Kbps 
Movie name : Eric Clapton And Steve Winwood Live From Madison Square Garden 
Encoded date : UTC 2012-12-15 15:58:53 
Writing application : mkvmerge v5.7.0 ('The Whirlwind') built on Jul 8 2012 20:08:51 
Writing library : libebml v1.2.3 + libmatroska v1.3.0 

Video 
ID : 1 
Format : AVC 
Format/Info : Advanced Video Codec 
Format profile : High@L4.0 
Format settings, CABAC : Yes 
Format settings, ReFrames : 3 frames 
Codec ID : V_MPEG4/ISO/AVC 
Duration : 2h 19mn 
Bit rate mode : Variable 
Bit rate : 4 176 Kbps 
Maximum bit rate : 25.0 Mbps 
Width : 1 920 pixels 
Height : 1 080 pixels 
Display aspect ratio : 16:9 
Frame rate mode : Constant 
Frame rate : 23.976 fps 
Color space : YUV 
Chroma subsampling : 4:2:0 
Bit depth : 8 bits 
Scan type : Progressive 
Bits/(Pixel*Frame) : 0.084 
Stream size : 4.07 GiB (72%) 
Writing library : x264 core 125 r2208 d9d2288 
Encoding settings : cabac=1 / ref=3 / deblock=1:0:0 / analyse=0x3:0x113 / me=hex / subme=7 / psy=1 / psy_rd=1.00:0.00 / mixed_ref=1 / me_range=16 / chroma_me=1 / trellis=1 / 8x8dct=1 / cqm=0 / deadzone=21,11 / fast_pskip=1 / chroma_qp_offset=-2 / threads=12 / lookahead_threads=2 / sliced_threads=0 / nr=0 / decimate=1 / interlaced=0 / bluray_compat=0 / constrained_intra=0 / bframes=3 / b_pyramid=0 / b_adapt=1 / b_bias=0 / direct=1 / weightb=1 / open_gop=0 / weightp=2 / keyint=240 / keyint_min=24 / scenecut=40 / intra_refresh=0 / rc_lookahead=40 / rc=crf / mbtree=1 / crf=24.0 / qcomp=0.60 / qpmin=0 / qpmax=69 / qpstep=4 / vbv_maxrate=25000 / vbv_bufsize=25000 / crf_max=0.0 / nal_hrd=vbr / ip_ratio=1.40 / aq=1:1.00 
Default : Yes 
Forced : No 

Audio 
ID : 2 
Format : DTS 
Format/Info : Digital Theater Systems 
Mode : 16 
Format settings, Endianness : Big 
Codec ID : A_DTS 
Duration : 2h 19mn 
Bit rate mode : Constant 
Bit rate : 1 509 Kbps 
Channel(s) : 6 channels 
Channel positions : Front: L C R, Side: L R, LFE 
Sampling rate : 48.0 KHz 
Bit depth : 24 bits 
Compression mode : Lossy 
Stream size : 1.47 GiB (26%) 
Language : English 
Default : Yes 
Forced : No 

Menu 
00:00:00.000 : en:Chapter 00 
00:02:12.006 : en:Chapter 01 
00:10:38.971 : en:Chapter 02 
00:16:25.985 : en:Chapter 03 
00:20:20.010 : en:Chapter 04 
00:25:09.090 : en:Chapter 05 
00:30:44.259 : en:Chapter 06 
00:35:00.556 : en:Chapter 07 
00:40:57.746 : en:Chapter 08 
00:49:13.116 : en:Chapter 09 
00:55:22.819 : en:Chapter 10 
01:02:20.236 : en:Chapter 11 
01:06:47.378 : en:Chapter 12 
01:11:35.291 : en:Chapter 13 
01:18:45.721 : en:Chapter 14 
01:23:28.962 : en:Chapter 15 
01:28:49.157 : en:Chapter 16 
01:35:47.366 : en:Chapter 17 
01:53:25.006 : en:Chapter 18 
01:59:27.451 : en:Chapter 19 
02:08:38.627 : en:Chapter 20 
